<svg width="50" height="50" fill="none" xmlns="http://www.w3.org/2000/svg"><path d="M18.75 17.188h3.125v9.375H18.75v-9.375zm-7.813 3.125h3.126v6.25h-3.126v-6.25zm-7.812-9.375H6.25v15.624H3.125V10.938z" fill="#000"/><path d="M18.75 17.188h3.125v9.375H18.75v-9.375zm-7.813 3.125h3.126v6.25h-3.126v-6.25zm-7.812-9.375H6.25v15.624H3.125V10.938z" fill="url(#paint0_linear_14_602)"/><path d="M46.875 44.666l-11.8-11.8a17.11 17.11 0 003.987-10.991c0-9.477-7.71-17.188-17.187-17.188-3.755 0-7.32 1.188-10.314 3.438l1.875 2.5a13.938 13.938 0 018.439-2.813c7.755 0 14.063 6.308 14.063 14.063 0 7.755-6.308 14.063-14.063 14.063a13.953 13.953 0 01-11.25-5.626l-2.5 1.879a17.062 17.062 0 0013.75 6.871 17.1 17.1 0 0010.99-3.987l11.8 11.8 2.21-2.21z" fill="#000"/><path d="M46.875 44.666l-11.8-11.8a17.11 17.11 0 003.987-10.991c0-9.477-7.71-17.188-17.187-17.188-3.755 0-7.32 1.188-10.314 3.438l1.875 2.5a13.938 13.938 0 018.439-2.813c7.755 0 14.063 6.308 14.063 14.063 0 7.755-6.308 14.063-14.063 14.063a13.953 13.953 0 01-11.25-5.626l-2.5 1.879a17.062 17.062 0 0013.75 6.871 17.1 17.1 0 0010.99-3.987l11.8 11.8 2.21-2.21z" fill="url(#paint1_linear_14_602)"/><defs><linearGradient id="paint0_linear_14_602" x1="12.5" y1="10.938" x2="12.5" y2="26.563" gradientUnits="userSpaceOnUse"><stop stop-color="#3171DE"/><stop offset="1" stop-color="#704AF2"/></linearGradient><linearGradient id="paint1_linear_14_602" x1="27.5" y1="4.688" x2="27.5" y2="46.875" gradientUnits="userSpaceOnUse"><stop stop-color="#3171DE"/><stop offset="1" stop-color="#704AF2"/></linearGradient></defs></svg>