<svg width="50" height="50" fill="none" xmlns="http://www.w3.org/2000/svg"><path d="M45.438 8.208c-3.209 8-11.25 18.875-17.98 24.271l-4.104 3.292c-.52.375-1.041.708-1.625.937 0-.375-.02-.791-.083-1.187-.23-1.75-1.021-3.375-2.417-4.771-1.416-1.417-3.146-2.25-4.916-2.48-.417-.02-.834-.062-1.25-.02a5.448 5.448 0 011.02-1.75l3.25-4.104c5.375-6.73 16.292-14.813 24.271-18 1.23-.459 2.417-.125 3.167.646.791.77 1.166 1.958.666 3.166z" stroke="#E27244" stroke-width="3.125" stroke-linecap="round" stroke-linejoin="round"/><path d="M21.73 36.708c0 2.292-.876 4.48-2.522 6.146-1.27 1.271-3 2.146-5.062 2.417l-5.125.562c-2.792.313-5.188-2.062-4.854-4.895l.562-5.125c.5-4.563 4.313-7.48 8.354-7.563.417-.02.854 0 1.25.02 1.771.23 3.5 1.043 4.917 2.48 1.396 1.396 2.188 3.02 2.417 4.77.02.397.062.793.062 1.188zm7.937-6.562c0-5.438-4.417-9.854-9.855-9.854" stroke="#E27244" stroke-width="3.125" stroke-linecap="round" stroke-linejoin="round"/></svg>