<svg width="50" height="50" fill="none" xmlns="http://www.w3.org/2000/svg"><path d="M41.667 29.167a4.167 4.167 0 100-8.334 4.167 4.167 0 000 8.334zm0-16.667a4.167 4.167 0 100-8.333 4.167 4.167 0 000 8.333zm0 33.333a4.167 4.167 0 100-8.333 4.167 4.167 0 000 8.333zM8.333 29.167a4.167 4.167 0 100-8.334 4.167 4.167 0 000 8.334zM12.5 25h25" stroke="#F3BC4C" stroke-width="3.125" stroke-linecap="round" stroke-linejoin="round"/><path d="M37.5 8.333h-8.333c-4.167 0-6.25 2.084-6.25 6.25v20.834c0 4.166 2.083 6.25 6.25 6.25H37.5" stroke="#F3BC4C" stroke-width="3.125" stroke-linecap="round" stroke-linejoin="round"/></svg>