<svg width="50" height="50" fill="none" xmlns="http://www.w3.org/2000/svg"><g clip-path="url(#clip0_14_598)" fill-rule="evenodd" clip-rule="evenodd"><path d="M35.938 43.75c7.78 0 14.062-3.125 14.062-7.813V6.25C50 3.125 43.75 0 35.937 0c-7.812 0-14.062 3.125-14.062 6.25v10.938a20.495 20.495 0 019 7.343c1.531.3 3.219.466 5.063.466 4.093 0 7.5-.816 9.937-2.144.346-.19.683-.397 1.01-.619v4.313c0 .734-.585 1.875-2.507 2.925-1.862 1.015-4.719 1.762-8.437 1.762a25.52 25.52 0 01-2.125-.084c.25 1.027.416 2.08.5 3.156.527.03 1.068.044 1.625.044 4.093 0 7.5-.816 9.937-2.144.346-.19.683-.396 1.01-.619V35.9c0 .738-.466 1.831-2.472 2.913-1.975 1.062-4.938 1.774-8.47 1.774-.718 0-1.414-.029-2.087-.087a20.02 20.02 0 01-.965 3.044c.983.11 2 .165 3.05.165l-.007.041zm8.437-23.625c1.922-1.05 2.506-2.19 2.506-2.925v-4.313c-.323.221-.66.428-1.01.62-2.43 1.327-5.843 2.143-9.937 2.143-4.093 0-7.5-.816-9.937-2.144-.346-.19-.683-.396-1.01-.619V17.2c0 .734.585 1.875 2.507 2.922 1.862 1.015 4.718 1.762 8.437 1.762 3.719 0 6.563-.747 8.438-1.762l.006.003zM25 7.812c0-.9.39-1.765 1.119-2.293.397-.288.828-.575 1.169-.732.853-.393 5.125-1.665 8.656-1.665 3.531 0 6.593.71 8.656 1.665.387.179.816.457 1.194.732.722.522 1.094 1.381 1.094 2.272v.018c0 .735-.585 1.875-2.507 2.925-1.862 1.016-4.718 1.763-8.437 1.763-3.719 0-6.563-.75-8.438-1.763C25.584 9.688 25 8.544 25 7.813z" fill="#000"/><path d="M35.938 43.75c7.78 0 14.062-3.125 14.062-7.813V6.25C50 3.125 43.75 0 35.937 0c-7.812 0-14.062 3.125-14.062 6.25v10.938a20.495 20.495 0 019 7.343c1.531.3 3.219.466 5.063.466 4.093 0 7.5-.816 9.937-2.144.346-.19.683-.397 1.01-.619v4.313c0 .734-.585 1.875-2.507 2.925-1.862 1.015-4.719 1.762-8.437 1.762a25.52 25.52 0 01-2.125-.084c.25 1.027.416 2.08.5 3.156.527.03 1.068.044 1.625.044 4.093 0 7.5-.816 9.937-2.144.346-.19.683-.396 1.01-.619V35.9c0 .738-.466 1.831-2.472 2.913-1.975 1.062-4.938 1.774-8.47 1.774-.718 0-1.414-.029-2.087-.087a20.02 20.02 0 01-.965 3.044c.983.11 2 .165 3.05.165l-.007.041zm8.437-23.625c1.922-1.05 2.506-2.19 2.506-2.925v-4.313c-.323.221-.66.428-1.01.62-2.43 1.327-5.843 2.143-9.937 2.143-4.093 0-7.5-.816-9.937-2.144-.346-.19-.683-.396-1.01-.619V17.2c0 .734.585 1.875 2.507 2.922 1.862 1.015 4.718 1.762 8.437 1.762 3.719 0 6.563-.747 8.438-1.762l.006.003zM25 7.812c0-.9.39-1.765 1.119-2.293.397-.288.828-.575 1.169-.732.853-.393 5.125-1.665 8.656-1.665 3.531 0 6.593.71 8.656 1.665.387.179.816.457 1.194.732.722.522 1.094 1.381 1.094 2.272v.018c0 .735-.585 1.875-2.507 2.925-1.862 1.016-4.718 1.763-8.437 1.763-3.719 0-6.563-.75-8.438-1.763C25.584 9.688 25 8.544 25 7.813z" fill="url(#paint0_linear_14_598)"/><path d="M28.125 35.938A14.044 14.044 0 0114.062 50 14.044 14.044 0 010 35.937a14.044 14.044 0 0114.063-14.062 14.044 14.044 0 0114.062 14.063zm-3.125 0c0 6.03-4.906 10.937-10.938 10.937-6.03 0-10.937-4.906-10.937-10.938C3.125 29.907 8.031 25 14.063 25 20.093 25 25 29.906 25 35.938z" fill="#000"/><path d="M28.125 35.938A14.044 14.044 0 0114.062 50 14.044 14.044 0 010 35.937a14.044 14.044 0 0114.063-14.062 14.044 14.044 0 0114.062 14.063zm-3.125 0c0 6.03-4.906 10.937-10.938 10.937-6.03 0-10.937-4.906-10.937-10.938C3.125 29.907 8.031 25 14.063 25 20.093 25 25 29.906 25 35.938z" fill="url(#paint1_linear_14_598)"/></g><defs><linearGradient id="paint0_linear_14_598" x1="35.938" y1="0" x2="35.938" y2="43.75" gradientUnits="userSpaceOnUse"><stop stop-color="#3171DE"/><stop offset="1" stop-color="#704AF2"/></linearGradient><linearGradient id="paint1_linear_14_598" x1="14.063" y1="21.875" x2="14.063" y2="50" gradientUnits="userSpaceOnUse"><stop stop-color="#3171DE"/><stop offset="1" stop-color="#704AF2"/></linearGradient><clipPath id="clip0_14_598"><path fill="#fff" d="M0 0h50v50H0z"/></clipPath></defs></svg>