<svg width="47" height="47" fill="none" xmlns="http://www.w3.org/2000/svg"><path d="M37.208 44.552a1.48 1.48 0 01-1.47-1.47v-21.54a1.48 1.48 0 011.47-1.47 1.48 1.48 0 011.468 1.47v21.54a1.48 1.48 0 01-1.468 1.47z" fill="url(#paint0_linear_4_1591)"/><path d="M37.208 15.177a1.48 1.48 0 01-1.47-1.47v-9.79a1.48 1.48 0 011.47-1.47 1.48 1.48 0 011.468 1.47v9.79a1.48 1.48 0 01-1.468 1.47z" fill="url(#paint1_linear_4_1591)"/><path d="M23.5 44.552a1.48 1.48 0 01-1.469-1.47v-9.79a1.48 1.48 0 011.469-1.47 1.48 1.48 0 011.469 1.47v9.79a1.48 1.48 0 01-1.469 1.47z" fill="url(#paint2_linear_4_1591)"/><path d="M23.5 26.927a1.48 1.48 0 01-1.469-1.47V3.918a1.48 1.48 0 011.469-1.47 1.48 1.48 0 011.469 1.47v21.54a1.48 1.48 0 01-1.469 1.47z" fill="url(#paint3_linear_4_1591)"/><path d="M9.792 44.552a1.48 1.48 0 01-1.468-1.47v-21.54a1.48 1.48 0 011.468-1.47 1.48 1.48 0 011.47 1.47v21.54a1.48 1.48 0 01-1.47 1.47z" fill="url(#paint4_linear_4_1591)"/><path d="M9.792 15.177a1.48 1.48 0 01-1.468-1.47v-9.79a1.48 1.48 0 011.468-1.47 1.48 1.48 0 011.47 1.47v9.79a1.48 1.48 0 01-1.47 1.47z" fill="url(#paint5_linear_4_1591)"/><path d="M13.708 23.01H5.875a1.48 1.48 0 01-1.469-1.469 1.48 1.48 0 011.469-1.468h7.833a1.48 1.48 0 011.47 1.468 1.48 1.48 0 01-1.47 1.469z" fill="url(#paint6_linear_4_1591)"/><path d="M41.126 23.01h-7.834a1.48 1.48 0 01-1.468-1.469 1.48 1.48 0 011.468-1.468h7.834a1.48 1.48 0 011.468 1.468 1.48 1.48 0 01-1.468 1.469z" fill="url(#paint7_linear_4_1591)"/><path d="M27.416 26.927h-7.833a1.48 1.48 0 01-1.47-1.468 1.48 1.48 0 011.47-1.469h7.833a1.48 1.48 0 011.469 1.469 1.48 1.48 0 01-1.469 1.468z" fill="url(#paint8_linear_4_1591)"/><defs><linearGradient id="paint0_linear_4_1591" x1="37.208" y1="20.073" x2="37.208" y2="44.552" gradientUnits="userSpaceOnUse"><stop offset="1" stop-color="#704AF2"/></linearGradient><linearGradient id="paint1_linear_4_1591" x1="37.208" y1="2.448" x2="37.208" y2="15.177" gradientUnits="userSpaceOnUse"><stop offset="1" stop-color="#704AF2"/></linearGradient><linearGradient id="paint2_linear_4_1591" x1="23.5" y1="31.823" x2="23.5" y2="44.552" gradientUnits="userSpaceOnUse"><stop offset="1" stop-color="#704AF2"/></linearGradient><linearGradient id="paint3_linear_4_1591" x1="23.5" y1="2.448" x2="23.5" y2="26.927" gradientUnits="userSpaceOnUse"><stop offset="1" stop-color="#704AF2"/></linearGradient><linearGradient id="paint4_linear_4_1591" x1="9.792" y1="20.073" x2="9.792" y2="44.552" gradientUnits="userSpaceOnUse"><stop offset="1" stop-color="#704AF2"/></linearGradient><linearGradient id="paint5_linear_4_1591" x1="9.792" y1="2.448" x2="9.792" y2="15.177" gradientUnits="userSpaceOnUse"><stop offset="1" stop-color="#704AF2"/></linearGradient><linearGradient id="paint6_linear_4_1591" x1="9.792" y1="20.073" x2="9.792" y2="23.01" gradientUnits="userSpaceOnUse"><stop offset="1" stop-color="#704AF2"/></linearGradient><linearGradient id="paint7_linear_4_1591" x1="37.209" y1="20.073" x2="37.209" y2="23.01" gradientUnits="userSpaceOnUse"><stop offset="1" stop-color="#704AF2"/></linearGradient><linearGradient id="paint8_linear_4_1591" x1="23.499" y1="23.99" x2="23.499" y2="26.927" gradientUnits="userSpaceOnUse"><stop offset="1" stop-color="#704AF2"/></linearGradient></defs></svg>