<svg width="50" height="50" fill="none" xmlns="http://www.w3.org/2000/svg"><path d="M35.354 25.52v9.376c0 7.812-3.125 10.937-10.938 10.937h-9.375c-7.812 0-10.937-3.125-10.937-10.937V25.52c0-7.813 3.125-10.938 10.938-10.938h9.374c7.813 0 10.938 3.125 10.938 10.938z" stroke="#DF5E63" stroke-width="3.125" stroke-linecap="round" stroke-linejoin="round"/><path d="M45.77 15.625c0 5.98-4.562 10.875-10.416 11.396v-1.5c0-7.813-3.125-10.938-10.937-10.938h-1.5A11.428 11.428 0 0134.313 4.167a11.411 11.411 0 0111.333 9.937c.083.48.125 1 .125 1.521z" stroke="#DF5E63" stroke-width="3.125" stroke-linecap="round" stroke-linejoin="round"/></svg>