<svg width="50" height="50" fill="none" xmlns="http://www.w3.org/2000/svg"><path d="M25 45.625c-.243 0-.469-.017-.677-.052a4.118 4.118 0 01-.625-.156c-4.688-1.563-8.42-4.453-11.198-8.671-2.778-4.218-4.167-8.759-4.167-13.621v-9.844c0-.868.252-1.649.756-2.344a4.309 4.309 0 011.953-1.51l12.5-4.687c.486-.174.972-.26 1.458-.26s.972.086 1.458.26l12.5 4.687c.799.313 1.45.816 1.954 1.51.505.695.756 1.476.755 2.344v9.844c0 4.861-1.39 9.401-4.167 13.62-2.778 4.22-6.51 7.11-11.198 8.672a4.08 4.08 0 01-.625.156 4.116 4.116 0 01-.677.052zm0-4.167c3.611-1.145 6.597-3.437 8.958-6.875 2.361-3.437 3.542-7.257 3.542-11.458v-9.844L25 8.594 12.5 13.28v9.844c0 4.201 1.18 8.02 3.542 11.458 2.36 3.438 5.347 5.73 8.958 6.875z" fill="#000"/><path d="M25 45.625c-.243 0-.469-.017-.677-.052a4.118 4.118 0 01-.625-.156c-4.688-1.563-8.42-4.453-11.198-8.671-2.778-4.218-4.167-8.759-4.167-13.621v-9.844c0-.868.252-1.649.756-2.344a4.309 4.309 0 011.953-1.51l12.5-4.687c.486-.174.972-.26 1.458-.26s.972.086 1.458.26l12.5 4.687c.799.313 1.45.816 1.954 1.51.505.695.756 1.476.755 2.344v9.844c0 4.861-1.39 9.401-4.167 13.62-2.778 4.22-6.51 7.11-11.198 8.672a4.08 4.08 0 01-.625.156 4.116 4.116 0 01-.677.052zm0-4.167c3.611-1.145 6.597-3.437 8.958-6.875 2.361-3.437 3.542-7.257 3.542-11.458v-9.844L25 8.594 12.5 13.28v9.844c0 4.201 1.18 8.02 3.542 11.458 2.36 3.438 5.347 5.73 8.958 6.875z" fill="url(#paint0_linear_14_595)"/><defs><linearGradient id="paint0_linear_14_595" x1="25" y1="4.479" x2="25" y2="45.625" gradientUnits="userSpaceOnUse"><stop stop-color="#3171DE"/><stop offset="1" stop-color="#704AF2"/></linearGradient></defs></svg>