<svg xmlns="http://www.w3.org/2000/svg" xmlns:xlink="http://www.w3.org/1999/xlink" xmlns:svgjs="http://svgjs.dev/svgjs" width="128" height="128"><svg width="128" height="128" fill="none" xmlns="http://www.w3.org/2000/svg"><path d="M123.756 27.154c-1.251-.625-1.789.566-2.52 1.17-.25.195-.462.449-.673.682-1.829 1.99-3.965 3.297-6.755 3.141-4.079-.233-7.562 1.073-10.641 4.253-.654-3.921-2.828-6.263-6.138-7.764-1.732-.78-3.483-1.561-4.695-3.258-.847-1.21-1.078-2.556-1.5-3.882-.27-.8-.54-1.62-1.444-1.756-.982-.156-1.367.682-1.751 1.385-1.54 2.868-2.136 6.028-2.078 9.227.135 7.2 3.117 12.934 9.044 17.012.673.468.846.936.635 1.619-.404 1.405-.885 2.77-1.308 4.175-.27.897-.675 1.092-1.617.702-3.252-1.384-6.062-3.433-8.544-5.91-4.214-4.156-8.024-8.74-12.777-12.33a55.47 55.47 0 00-3.387-2.36c-4.849-4.8.635-8.74 1.905-9.209 1.328-.488.462-2.165-3.83-2.146-4.29.02-8.216 1.483-13.219 3.434-.731.293-1.5.507-2.29.682-4.541-.878-9.256-1.073-14.182-.507-9.275 1.053-16.683 5.52-22.128 13.148C7.32 47.833 5.78 58.25 7.667 69.116c1.981 11.451 7.716 20.933 16.529 28.346 9.14 7.685 19.666 11.451 31.673 10.729 7.292-.429 15.413-1.423 24.572-9.325 2.31 1.17 4.734 1.639 8.756 1.99 3.098.293 6.08-.156 8.39-.643 3.617-.78 3.367-4.195 2.058-4.819-10.602-5.032-8.274-2.984-10.39-4.642 4.688-5.653 11.446-11.498 15.214-27.333.903-3.797 1.469-8.039 1.469-12.016 0-.796.173-1.19 1.135-1.287 2.655-.313 5.234-1.053 7.601-2.38 6.869-3.824 9.64-10.105 10.295-17.636.096-1.15-.019-2.341-1.213-2.946zm-59.863 67.77c-10.276-8.23-15.259-10.943-17.318-10.826-1.924.117-1.578 2.36-1.155 3.824.443 1.444 1.02 2.438 1.829 3.706.558.84.943 2.087-.558 3.025-3.31 2.086-9.063-.703-9.333-.84-6.696-4.019-12.296-9.325-16.241-16.582-3.81-6.984-6.023-14.474-6.388-22.473-.096-1.931.462-2.615 2.347-2.965 2.482-.469 5.041-.567 7.524-.196 10.487 1.56 19.415 6.34 26.9 13.91 4.273 4.31 7.505 9.461 10.835 14.494 3.54 5.345 7.35 10.437 12.2 14.612 1.712 1.463 3.078 2.575 4.387 3.394-3.945.449-10.526.547-15.029-3.082zm4.97-32.66a1.514 1.514 0 011.477-1.166c.177 0 .353.034.519.098.212.078.404.195.558.37.27.274.423.664.423 1.073a1.52 1.52 0 01-1.52 1.541 1.467 1.467 0 01-.975-.36 1.52 1.52 0 01-.506-.925 1.626 1.626 0 01.025-.631zm14.758 8.574c-.815.318-1.626.567-2.41.6-1.462.077-3.059-.528-3.924-1.269-1.347-1.15-2.31-1.794-2.714-3.804-.173-.859-.077-2.185.077-2.946.347-1.639-.038-2.692-1.173-3.648-.924-.78-2.098-.995-3.387-.995-.481 0-.923-.214-1.25-.39-.54-.272-.982-.955-.559-1.794.135-.273.79-.937.944-1.053 1.75-1.015 3.771-.683 5.637.077 1.732.722 3.041 2.049 4.927 3.921 1.924 2.263 2.27 2.888 3.367 4.585.866 1.326 1.655 2.692 2.194 4.252.274.816.022 1.51-.732 2-.306.2-.659.333-.997.465z" fill="#4D6BFE"/></svg><style>@media (prefers-color-scheme:light){:root{filter:none}}@media (prefers-color-scheme:dark){:root{filter:none}}</style></svg>