<svg xmlns="http://www.w3.org/2000/svg" xmlns:xlink="http://www.w3.org/1999/xlink"><defs>
<linearGradient id="paint0_linear_14_602" x1="12.5" y1="10.9375" x2="12.5" y2="26.5625" gradientUnits="userSpaceOnUse">
<stop stop-color="#3171DE"/>
<stop offset="1" stop-color="#704AF2"/>
</linearGradient>
<linearGradient id="paint1_linear_14_602" x1="27.5" y1="4.6875" x2="27.5" y2="46.875" gradientUnits="userSpaceOnUse">
<stop stop-color="#3171DE"/>
<stop offset="1" stop-color="#704AF2"/>
</linearGradient>

<linearGradient id="paint0_linear_14_598" x1="35.9375" y1="0" x2="35.9375" y2="43.75" gradientUnits="userSpaceOnUse">
<stop stop-color="#3171DE"/>
<stop offset="1" stop-color="#704AF2"/>
</linearGradient>
<linearGradient id="paint1_linear_14_598" x1="14.0625" y1="21.875" x2="14.0625" y2="50" gradientUnits="userSpaceOnUse">
<stop stop-color="#3171DE"/>
<stop offset="1" stop-color="#704AF2"/>
</linearGradient>
<clipPath id="clip0_14_598">
<rect width="50" height="50" fill="white"/>
</clipPath>

<linearGradient id="paint0_linear_4_1591" x1="37.2076" y1="20.0725" x2="37.2076" y2="44.5517" gradientUnits="userSpaceOnUse">
<stop offset="1" stop-color="#704AF2"/>
</linearGradient>
<linearGradient id="paint1_linear_4_1591" x1="37.2076" y1="2.44751" x2="37.2076" y2="15.1767" gradientUnits="userSpaceOnUse">
<stop offset="1" stop-color="#704AF2"/>
</linearGradient>
<linearGradient id="paint2_linear_4_1591" x1="23.5" y1="31.8225" x2="23.5" y2="44.5517" gradientUnits="userSpaceOnUse">
<stop offset="1" stop-color="#704AF2"/>
</linearGradient>
<linearGradient id="paint3_linear_4_1591" x1="23.5" y1="2.44751" x2="23.5" y2="26.9267" gradientUnits="userSpaceOnUse">
<stop offset="1" stop-color="#704AF2"/>
</linearGradient>
<linearGradient id="paint4_linear_4_1591" x1="9.79236" y1="20.0725" x2="9.79236" y2="44.5517" gradientUnits="userSpaceOnUse">
<stop offset="1" stop-color="#704AF2"/>
</linearGradient>
<linearGradient id="paint5_linear_4_1591" x1="9.79236" y1="2.44751" x2="9.79236" y2="15.1767" gradientUnits="userSpaceOnUse">
<stop offset="1" stop-color="#704AF2"/>
</linearGradient>
<linearGradient id="paint6_linear_4_1591" x1="9.79167" y1="20.0725" x2="9.79167" y2="23.01" gradientUnits="userSpaceOnUse">
<stop offset="1" stop-color="#704AF2"/>
</linearGradient>
<linearGradient id="paint7_linear_4_1591" x1="37.209" y1="20.0725" x2="37.209" y2="23.01" gradientUnits="userSpaceOnUse">
<stop offset="1" stop-color="#704AF2"/>
</linearGradient>
<linearGradient id="paint8_linear_4_1591" x1="23.4993" y1="23.99" x2="23.4993" y2="26.9275" gradientUnits="userSpaceOnUse">
<stop offset="1" stop-color="#704AF2"/>
</linearGradient>

<linearGradient id="paint0_linear_14_595" x1="24.9999" y1="4.47919" x2="24.9999" y2="45.625" gradientUnits="userSpaceOnUse">
<stop stop-color="#3171DE"/>
<stop offset="1" stop-color="#704AF2"/>
</linearGradient>
</defs><symbol id="analytics" viewBox="0 0 50 50">
<path d="M18.75 17.1875H21.875V26.5625H18.75V17.1875ZM10.9375 20.3125H14.0625V26.5625H10.9375V20.3125ZM3.125 10.9375H6.25V26.5625H3.125V10.9375Z" fill="black"/>
<path d="M18.75 17.1875H21.875V26.5625H18.75V17.1875ZM10.9375 20.3125H14.0625V26.5625H10.9375V20.3125ZM3.125 10.9375H6.25V26.5625H3.125V10.9375Z" fill="url(#paint0_linear_14_602)"/>
<path d="M46.875 44.6656L35.075 32.8656C37.6535 29.784 39.0651 25.8931 39.0625 21.875C39.0625 12.3984 31.3516 4.6875 21.875 4.6875C18.1203 4.6875 14.5547 5.875 11.5609 8.125L13.4359 10.625C15.8662 8.79089 18.8303 7.80305 21.875 7.8125C29.6297 7.8125 35.9375 14.1203 35.9375 21.875C35.9375 29.6297 29.6297 35.9375 21.875 35.9375C19.6904 35.9461 17.5342 35.4415 15.5802 34.4645C13.6262 33.4875 11.9289 32.0653 10.625 30.3125L8.125 32.1906C9.71949 34.3319 11.7942 36.0692 14.1823 37.2627C16.5704 38.4562 19.2053 39.0727 21.875 39.0625C26.0516 39.0625 29.8844 37.5625 32.8656 35.075L44.6656 46.875L46.875 44.6656Z" fill="black"/>
<path d="M46.875 44.6656L35.075 32.8656C37.6535 29.784 39.0651 25.8931 39.0625 21.875C39.0625 12.3984 31.3516 4.6875 21.875 4.6875C18.1203 4.6875 14.5547 5.875 11.5609 8.125L13.4359 10.625C15.8662 8.79089 18.8303 7.80305 21.875 7.8125C29.6297 7.8125 35.9375 14.1203 35.9375 21.875C35.9375 29.6297 29.6297 35.9375 21.875 35.9375C19.6904 35.9461 17.5342 35.4415 15.5802 34.4645C13.6262 33.4875 11.9289 32.0653 10.625 30.3125L8.125 32.1906C9.71949 34.3319 11.7942 36.0692 14.1823 37.2627C16.5704 38.4562 19.2053 39.0727 21.875 39.0625C26.0516 39.0625 29.8844 37.5625 32.8656 35.075L44.6656 46.875L46.875 44.6656Z" fill="url(#paint1_linear_14_602)"/>

</symbol><symbol id="arrow-left" viewBox="0 0 32 33">
<path d="M19.9995 26.8368L11.3061 18.1435C10.2795 17.1168 10.2795 15.4368 11.3061 14.4101L19.9995 5.7168" stroke="#292D32" stroke-width="2" stroke-miterlimit="10" stroke-linecap="round" stroke-linejoin="round"/>
</symbol><symbol id="arrow-right" viewBox="0 0 24 25">
<path d="M14.4301 19.0965C14.2401 19.0965 14.0501 19.0265 13.9001 18.8765C13.6101 18.5865 13.6101 18.1065 13.9001 17.8165L19.4401 12.2765L13.9001 6.73648C13.6101 6.44648 13.6101 5.96648 13.9001 5.67648C14.1901 5.38648 14.6701 5.38648 14.9601 5.67648L21.0301 11.7465C21.3201 12.0365 21.3201 12.5165 21.0301 12.8065L14.9601 18.8765C14.8101 19.0265 14.6201 19.0965 14.4301 19.0965Z" fill="#292D32"/>
<path d="M20.33 13.0264H3.5C3.09 13.0264 2.75 12.6864 2.75 12.2764C2.75 11.8664 3.09 11.5264 3.5 11.5264H20.33C20.74 11.5264 21.08 11.8664 21.08 12.2764C21.08 12.6864 20.74 13.0264 20.33 13.0264Z" fill="#292D32"/>
</symbol><symbol id="brush" viewBox="0 0 50 50">
<path d="M45.4375 8.20832C42.2292 16.2083 34.1875 27.0833 27.4583 32.4792L23.3542 35.7708C22.8333 36.1458 22.3125 36.4792 21.7292 36.7083C21.7292 36.3333 21.7083 35.9167 21.6458 35.5208C21.4167 33.7708 20.625 32.1458 19.2292 30.75C17.8125 29.3333 16.0833 28.5 14.3125 28.2708C13.8958 28.25 13.4792 28.2083 13.0625 28.25C13.2917 27.6042 13.6458 27 14.0833 26.5L17.3333 22.3958C22.7083 15.6667 33.625 7.58332 41.6042 4.39582C42.8333 3.93749 44.0208 4.27082 44.7708 5.04166C45.5625 5.81249 45.9375 6.99999 45.4375 8.20832Z" stroke="#E27244" stroke-width="3.125" stroke-linecap="round" stroke-linejoin="round"/>
<path d="M21.7291 36.7084C21.7291 39.0001 20.8541 41.1876 19.2083 42.8543C17.9375 44.1251 16.2083 45.0001 14.1458 45.2709L9.02081 45.8334C6.22915 46.1459 3.83331 43.7709 4.16665 40.9376L4.72915 35.8126C5.22915 31.2501 9.04165 28.3334 13.0833 28.2501C13.5 28.2293 13.9375 28.2501 14.3333 28.2709C16.1041 28.5001 17.8333 29.3126 19.25 30.7501C20.6458 32.1459 21.4375 33.7709 21.6666 35.5209C21.6875 35.9167 21.7291 36.3126 21.7291 36.7084Z" stroke="#E27244" stroke-width="3.125" stroke-linecap="round" stroke-linejoin="round"/>
<path d="M29.6667 30.1458C29.6667 24.7083 25.25 20.2916 19.8125 20.2916" stroke="#E27244" stroke-width="3.125" stroke-linecap="round" stroke-linejoin="round"/>
</symbol><symbol id="close" viewBox="0 0 20 20">
<path d="M16.2753 4.60863C16.5193 4.36455 16.5193 3.96882 16.2753 3.72475C16.0312 3.48067 15.6354 3.48067 15.3914 3.72475L9.99997 9.11615L4.60857 3.72475C4.36449 3.48067 3.96876 3.48067 3.72468 3.72475C3.48061 3.96883 3.48061 4.36455 3.72468 4.60863L9.11609 10L3.72471 15.3914C3.48063 15.6355 3.48063 16.0312 3.72471 16.2753C3.96878 16.5194 4.36451 16.5194 4.60859 16.2753L9.99997 10.8839L15.3913 16.2753C15.6354 16.5194 16.0312 16.5194 16.2752 16.2753C16.5193 16.0312 16.5193 15.6355 16.2752 15.3914L10.8839 10L16.2753 4.60863Z" fill="#2C2C2C"/>
</symbol><symbol id="data" viewBox="0 0 50 50">
<path d="M41.6667 29.1667C43.9679 29.1667 45.8333 27.3012 45.8333 25C45.8333 22.6989 43.9679 20.8334 41.6667 20.8334C39.3655 20.8334 37.5 22.6989 37.5 25C37.5 27.3012 39.3655 29.1667 41.6667 29.1667Z" stroke="#F3BC4C" stroke-width="3.125" stroke-linecap="round" stroke-linejoin="round"/>
<path d="M41.6667 12.5C43.9679 12.5 45.8333 10.6345 45.8333 8.33329C45.8333 6.03211 43.9679 4.16663 41.6667 4.16663C39.3655 4.16663 37.5 6.03211 37.5 8.33329C37.5 10.6345 39.3655 12.5 41.6667 12.5Z" stroke="#F3BC4C" stroke-width="3.125" stroke-linecap="round" stroke-linejoin="round"/>
<path d="M41.6667 45.8333C43.9679 45.8333 45.8333 43.9679 45.8333 41.6667C45.8333 39.3655 43.9679 37.5 41.6667 37.5C39.3655 37.5 37.5 39.3655 37.5 41.6667C37.5 43.9679 39.3655 45.8333 41.6667 45.8333Z" stroke="#F3BC4C" stroke-width="3.125" stroke-linecap="round" stroke-linejoin="round"/>
<path d="M8.33341 29.1667C10.6346 29.1667 12.5001 27.3012 12.5001 25C12.5001 22.6989 10.6346 20.8334 8.33341 20.8334C6.03223 20.8334 4.16675 22.6989 4.16675 25C4.16675 27.3012 6.03223 29.1667 8.33341 29.1667Z" stroke="#F3BC4C" stroke-width="3.125" stroke-linecap="round" stroke-linejoin="round"/>
<path d="M12.5 25H37.5" stroke="#F3BC4C" stroke-width="3.125" stroke-linecap="round" stroke-linejoin="round"/>
<path d="M37.5001 8.33337H29.1667C25.0001 8.33337 22.9167 10.4167 22.9167 14.5834V35.4167C22.9167 39.5834 25.0001 41.6667 29.1667 41.6667H37.5001" stroke="#F3BC4C" stroke-width="3.125" stroke-linecap="round" stroke-linejoin="round"/>
</symbol><symbol id="document-code" viewBox="0 0 50 50">
<path d="M43.75 14.5833V35.4166C43.75 41.6666 40.625 45.8333 33.3333 45.8333H16.6667C9.375 45.8333 6.25 41.6666 6.25 35.4166V14.5833C6.25 8.33329 9.375 4.16663 16.6667 4.16663H33.3333C40.625 4.16663 43.75 8.33329 43.75 14.5833Z" stroke="#66B066" stroke-width="3.125" stroke-miterlimit="10" stroke-linecap="round" stroke-linejoin="round"/>
<path d="M30.2083 9.375V13.5417C30.2083 15.8333 32.0833 17.7083 34.375 17.7083H38.5416" stroke="#66B066" stroke-width="3.125" stroke-miterlimit="10" stroke-linecap="round" stroke-linejoin="round"/>
<path d="M20.8334 27.0834L16.6667 31.25L20.8334 35.4167" stroke="#66B066" stroke-width="3.125" stroke-miterlimit="10" stroke-linecap="round" stroke-linejoin="round"/>
<path d="M29.1667 27.0834L33.3334 31.25L29.1667 35.4167" stroke="#66B066" stroke-width="3.125" stroke-miterlimit="10" stroke-linecap="round" stroke-linejoin="round"/>
</symbol><symbol id="logo-small" viewBox="0 0 128 128">
<path d="M123.756 27.1541C122.505 26.5294 121.967 27.7199 121.236 28.3243C120.986 28.5193 120.774 28.7726 120.563 29.0064C118.734 30.9963 116.598 32.3035 113.808 32.1473C109.729 31.9135 106.246 33.2204 103.167 36.3999C102.513 32.479 100.339 30.1371 97.0293 28.6359C95.2974 27.8557 93.5465 27.0748 92.334 25.3777C91.4874 24.1687 91.2564 22.8223 90.8332 21.4957C90.564 20.6964 90.2939 19.8767 89.3896 19.7397C88.4083 19.5836 88.0229 20.4221 87.6387 21.1252C86.0991 23.9931 85.5027 27.1532 85.5608 30.3521C85.6959 37.5512 88.6781 43.2858 94.605 47.3637C95.2784 47.832 95.4512 48.3 95.2402 48.9828C94.836 50.3877 94.3549 51.7529 93.9317 53.1578C93.6622 54.0553 93.2574 54.2503 92.3149 53.8603C89.0632 52.4757 86.2532 50.4266 83.7708 47.9496C79.5566 43.7939 75.747 39.2095 70.9938 35.6196C69.8939 34.7906 68.7642 34.0032 67.6071 33.2592C62.758 28.4603 68.2423 24.5191 69.5121 24.0514C70.8397 23.5633 69.9741 21.886 65.6824 21.9054C61.3913 21.9249 57.4657 23.3878 52.4631 25.3388C51.7316 25.6319 50.9623 25.8463 50.173 26.0212C45.6318 25.1432 40.9174 24.9482 35.9911 25.5137C26.7159 26.5667 19.3082 31.0345 13.8626 38.6624C7.32048 47.833 5.7806 58.2498 7.66653 69.1162C9.64843 80.5671 15.3825 90.0486 24.1957 97.4621C33.3359 105.147 43.8618 108.913 55.8686 108.191C63.1613 107.762 71.2821 106.768 80.4413 98.8661C82.7505 100.036 85.1747 100.505 89.1967 100.856C92.2949 101.149 95.2774 100.7 97.5866 100.213C101.204 99.4326 100.954 96.0183 99.6454 95.3945C89.0435 90.3618 91.3708 92.41 89.2545 90.7517C93.943 85.0987 100.701 79.2535 104.469 63.4192C105.372 59.6224 105.938 55.3802 105.938 51.4034C105.938 50.6068 106.111 50.2138 107.073 50.116C109.728 49.8034 112.307 49.063 114.674 47.7358C121.543 43.9121 124.314 37.6305 124.969 30.1004C125.065 28.9497 124.95 27.7585 123.756 27.1541ZM63.8934 94.9249C53.6175 86.6932 48.634 83.9808 46.5752 84.098C44.6511 84.2153 44.9972 86.4588 45.4205 87.9217C45.8628 89.3656 46.4408 90.3602 47.2486 91.6282C47.8066 92.4673 48.1917 93.7152 46.6909 94.6525C43.3814 96.7392 37.6276 93.95 37.3578 93.813C30.6616 89.7944 25.0619 84.4883 21.1169 77.2315C17.3072 70.2468 15.094 62.7565 14.7288 54.7578C14.6326 52.8268 15.1909 52.1431 17.0762 51.7927C19.5582 51.324 22.1175 51.2262 24.5999 51.5968C35.0868 53.1578 44.015 57.9373 51.5006 65.5063C55.7726 69.8171 59.0052 74.968 62.3348 80.0007C65.8753 85.3459 69.6853 90.4379 74.5344 94.6127C76.2471 96.0756 77.6129 97.1878 78.9218 98.0075C74.9767 98.4558 68.3955 98.5536 63.8934 94.9249ZM68.8635 62.2637C69.0263 61.5911 69.6203 61.0983 70.3396 61.0983C70.517 61.0987 70.6928 61.1317 70.8588 61.1955C71.0707 61.2738 71.263 61.3911 71.4171 61.566C71.6862 61.8396 71.8404 62.2296 71.8404 62.639C71.8404 63.4976 71.167 64.18 70.3205 64.18C69.9632 64.1834 69.6166 64.0552 69.3446 63.8191C69.0725 63.5831 68.8931 63.2549 68.8394 62.8948C68.8061 62.6849 68.8143 62.4703 68.8635 62.2637ZM83.6208 70.8385C82.8061 71.1558 81.9953 71.4049 81.2116 71.4374C79.7489 71.5151 78.1521 70.9105 77.2865 70.1691C75.9398 69.0184 74.9776 68.3751 74.5735 66.3649C74.4003 65.5063 74.4962 64.18 74.6504 63.4192C74.9967 61.7804 74.6116 60.7268 73.4768 59.7711C72.5534 58.9908 71.379 58.7764 70.0901 58.7764C69.609 58.7764 69.1667 58.562 68.8394 58.3865C68.3005 58.1138 67.8581 57.4307 68.2814 56.5916C68.4164 56.3189 69.0707 55.6552 69.2248 55.5386C70.9754 54.5239 72.9964 54.8556 74.8623 55.6164C76.5941 56.3383 77.903 57.6646 79.7886 59.5372C81.7127 61.7998 82.059 62.4246 83.1563 64.1217C84.0225 65.448 84.8112 66.8141 85.3501 68.3742C85.6243 69.1901 85.3723 69.8843 84.6183 70.374C84.3116 70.5731 83.959 70.7066 83.6208 70.8385Z" fill="#4D6BFE"/>
</symbol><symbol id="mobile" viewBox="0 0 41 50">
<path d="M39 13.5625V36.6875C39 45.9375 36.6875 48.25 27.4375 48.25H13.5625C4.3125 48.25 2 45.9375 2 36.6875V13.5625C2 4.3125 4.3125 2 13.5625 2H27.4375C36.6875 2 39 4.3125 39 13.5625Z" stroke="#5E5DEF" stroke-width="3.46875" stroke-linecap="round" stroke-linejoin="round"/>
<path d="M25.125 10.0938H15.875" stroke="#5E5DEF" stroke-width="3.46875" stroke-linecap="round" stroke-linejoin="round"/>
<path d="M20.5 41.5438C22.4796 41.5438 24.0844 39.939 24.0844 37.9594C24.0844 35.9798 22.4796 34.375 20.5 34.375C18.5204 34.375 16.9156 35.9798 16.9156 37.9594C16.9156 39.939 18.5204 41.5438 20.5 41.5438Z" stroke="#5E5DEF" stroke-width="3.46875" stroke-linecap="round" stroke-linejoin="round"/>
</symbol><symbol id="money" viewBox="0 0 50 50">
<g clip-path="url(#clip0_14_598)">
<path fill-rule="evenodd" clip-rule="evenodd" d="M35.9375 43.75C43.7188 43.75 50 40.625 50 35.9375V6.25C50 3.125 43.75 0 35.9375 0C28.125 0 21.875 3.125 21.875 6.25V17.1875C25.5312 18.7188 28.6563 21.2812 30.875 24.5312C32.4062 24.8312 34.0938 24.9969 35.9375 24.9969C40.0312 24.9969 43.4375 24.1813 45.875 22.8531C46.221 22.6629 46.5579 22.4565 46.8844 22.2344V26.5469C46.8844 27.2812 46.3 28.4219 44.3781 29.4719C42.5156 30.4875 39.6594 31.2344 35.9406 31.2344C35.1969 31.2344 34.4885 31.2063 33.8156 31.15C34.0656 32.1771 34.2323 33.2292 34.3156 34.3062C34.8427 34.3354 35.3844 34.35 35.9406 34.35C40.0344 34.35 43.4406 33.5344 45.8781 32.2062C46.2242 32.0161 46.561 31.8096 46.8875 31.5875V35.9C46.8875 36.6375 46.4219 37.7313 44.4156 38.8125C42.4406 39.875 39.4781 40.5875 35.9469 40.5875C35.2281 40.5875 34.5323 40.5583 33.8594 40.5C33.6191 41.5387 33.2962 42.5565 32.8938 43.5438C33.8771 43.6542 34.8937 43.7094 35.9437 43.7094L35.9375 43.75ZM44.375 20.125C46.2969 19.075 46.8813 17.9344 46.8813 17.2V12.8875C46.5583 13.1083 46.2219 13.3146 45.8719 13.5063C43.4406 14.8344 40.0281 15.65 35.9344 15.65C31.8406 15.65 28.4344 14.8344 25.9969 13.5063C25.6508 13.3161 25.314 13.1096 24.9875 12.8875V17.2C24.9875 17.9344 25.5719 19.075 27.4938 20.1219C29.3563 21.1375 32.2125 21.8844 35.9313 21.8844C39.65 21.8844 42.4937 21.1375 44.3687 20.1219L44.375 20.125ZM25 7.8125C25 6.9125 25.3906 6.04688 26.1187 5.51875C26.5156 5.23125 26.9469 4.94375 27.2875 4.7875C28.1406 4.39375 32.4125 3.12188 35.9437 3.12188C39.475 3.12188 42.5375 3.83125 44.6 4.7875C44.9875 4.96562 45.4156 5.24375 45.7938 5.51875C46.5156 6.04063 46.8875 6.9 46.8875 7.79063V7.80938C46.8875 8.54375 46.3031 9.68437 44.3812 10.7344C42.5187 11.75 39.6625 12.4969 35.9437 12.4969C32.225 12.4969 29.3813 11.7469 27.5063 10.7344C25.5844 9.6875 25 8.54375 25 7.8125Z" fill="black"/>
<path fill-rule="evenodd" clip-rule="evenodd" d="M35.9375 43.75C43.7188 43.75 50 40.625 50 35.9375V6.25C50 3.125 43.75 0 35.9375 0C28.125 0 21.875 3.125 21.875 6.25V17.1875C25.5312 18.7188 28.6563 21.2812 30.875 24.5312C32.4062 24.8312 34.0938 24.9969 35.9375 24.9969C40.0312 24.9969 43.4375 24.1813 45.875 22.8531C46.221 22.6629 46.5579 22.4565 46.8844 22.2344V26.5469C46.8844 27.2812 46.3 28.4219 44.3781 29.4719C42.5156 30.4875 39.6594 31.2344 35.9406 31.2344C35.1969 31.2344 34.4885 31.2063 33.8156 31.15C34.0656 32.1771 34.2323 33.2292 34.3156 34.3062C34.8427 34.3354 35.3844 34.35 35.9406 34.35C40.0344 34.35 43.4406 33.5344 45.8781 32.2062C46.2242 32.0161 46.561 31.8096 46.8875 31.5875V35.9C46.8875 36.6375 46.4219 37.7313 44.4156 38.8125C42.4406 39.875 39.4781 40.5875 35.9469 40.5875C35.2281 40.5875 34.5323 40.5583 33.8594 40.5C33.6191 41.5387 33.2962 42.5565 32.8938 43.5438C33.8771 43.6542 34.8937 43.7094 35.9437 43.7094L35.9375 43.75ZM44.375 20.125C46.2969 19.075 46.8813 17.9344 46.8813 17.2V12.8875C46.5583 13.1083 46.2219 13.3146 45.8719 13.5063C43.4406 14.8344 40.0281 15.65 35.9344 15.65C31.8406 15.65 28.4344 14.8344 25.9969 13.5063C25.6508 13.3161 25.314 13.1096 24.9875 12.8875V17.2C24.9875 17.9344 25.5719 19.075 27.4938 20.1219C29.3563 21.1375 32.2125 21.8844 35.9313 21.8844C39.65 21.8844 42.4937 21.1375 44.3687 20.1219L44.375 20.125ZM25 7.8125C25 6.9125 25.3906 6.04688 26.1187 5.51875C26.5156 5.23125 26.9469 4.94375 27.2875 4.7875C28.1406 4.39375 32.4125 3.12188 35.9437 3.12188C39.475 3.12188 42.5375 3.83125 44.6 4.7875C44.9875 4.96562 45.4156 5.24375 45.7938 5.51875C46.5156 6.04063 46.8875 6.9 46.8875 7.79063V7.80938C46.8875 8.54375 46.3031 9.68437 44.3812 10.7344C42.5187 11.75 39.6625 12.4969 35.9437 12.4969C32.225 12.4969 29.3813 11.7469 27.5063 10.7344C25.5844 9.6875 25 8.54375 25 7.8125Z" fill="url(#paint0_linear_14_598)"/>
<path fill-rule="evenodd" clip-rule="evenodd" d="M28.125 35.9375C28.125 43.7188 21.8438 50 14.0625 50C6.28125 50 0 43.7188 0 35.9375C0 28.1562 6.28125 21.875 14.0625 21.875C21.8438 21.875 28.125 28.1562 28.125 35.9375ZM25 35.9375C25 41.9688 20.0938 46.875 14.0625 46.875C8.03125 46.875 3.125 41.9688 3.125 35.9375C3.125 29.9062 8.03125 25 14.0625 25C20.0938 25 25 29.9062 25 35.9375Z" fill="black"/>
<path fill-rule="evenodd" clip-rule="evenodd" d="M28.125 35.9375C28.125 43.7188 21.8438 50 14.0625 50C6.28125 50 0 43.7188 0 35.9375C0 28.1562 6.28125 21.875 14.0625 21.875C21.8438 21.875 28.125 28.1562 28.125 35.9375ZM25 35.9375C25 41.9688 20.0938 46.875 14.0625 46.875C8.03125 46.875 3.125 41.9688 3.125 35.9375C3.125 29.9062 8.03125 25 14.0625 25C20.0938 25 25 29.9062 25 35.9375Z" fill="url(#paint1_linear_14_598)"/>
</g>

</symbol><symbol id="setting-5" viewBox="0 0 47 47">
<path d="M37.2076 44.5517C36.4047 44.5517 35.7389 43.8858 35.7389 43.0829V21.5413C35.7389 20.7383 36.4047 20.0725 37.2076 20.0725C38.0106 20.0725 38.6764 20.7383 38.6764 21.5413V43.0829C38.6764 43.8858 38.0106 44.5517 37.2076 44.5517Z" fill="url(#paint0_linear_4_1591)"/>
<path d="M37.2076 15.1767C36.4047 15.1767 35.7389 14.5108 35.7389 13.7079V3.91626C35.7389 3.11334 36.4047 2.44751 37.2076 2.44751C38.0106 2.44751 38.6764 3.11334 38.6764 3.91626V13.7079C38.6764 14.5108 38.0106 15.1767 37.2076 15.1767Z" fill="url(#paint1_linear_4_1591)"/>
<path d="M23.5 44.5517C22.6971 44.5517 22.0312 43.8858 22.0312 43.0829V33.2913C22.0312 32.4883 22.6971 31.8225 23.5 31.8225C24.3029 31.8225 24.9688 32.4883 24.9688 33.2913V43.0829C24.9688 43.8858 24.3029 44.5517 23.5 44.5517Z" fill="url(#paint2_linear_4_1591)"/>
<path d="M23.5 26.9267C22.6971 26.9267 22.0312 26.2608 22.0312 25.4579V3.91626C22.0312 3.11334 22.6971 2.44751 23.5 2.44751C24.3029 2.44751 24.9688 3.11334 24.9688 3.91626V25.4579C24.9688 26.2608 24.3029 26.9267 23.5 26.9267Z" fill="url(#paint3_linear_4_1591)"/>
<path d="M9.79236 44.5517C8.98944 44.5517 8.32361 43.8858 8.32361 43.0829V21.5413C8.32361 20.7383 8.98944 20.0725 9.79236 20.0725C10.5953 20.0725 11.2611 20.7383 11.2611 21.5413V43.0829C11.2611 43.8858 10.5953 44.5517 9.79236 44.5517Z" fill="url(#paint4_linear_4_1591)"/>
<path d="M9.79236 15.1767C8.98944 15.1767 8.32361 14.5108 8.32361 13.7079V3.91626C8.32361 3.11334 8.98944 2.44751 9.79236 2.44751C10.5953 2.44751 11.2611 3.11334 11.2611 3.91626V13.7079C11.2611 14.5108 10.5953 15.1767 9.79236 15.1767Z" fill="url(#paint5_linear_4_1591)"/>
<path d="M13.7083 23.01H5.875C5.07208 23.01 4.40625 22.3442 4.40625 21.5413C4.40625 20.7383 5.07208 20.0725 5.875 20.0725H13.7083C14.5113 20.0725 15.1771 20.7383 15.1771 21.5413C15.1771 22.3442 14.5113 23.01 13.7083 23.01Z" fill="url(#paint6_linear_4_1591)"/>
<path d="M41.1257 23.01H33.2924C32.4894 23.01 31.8236 22.3442 31.8236 21.5413C31.8236 20.7383 32.4894 20.0725 33.2924 20.0725H41.1257C41.9286 20.0725 42.5944 20.7383 42.5944 21.5413C42.5944 22.3442 41.9286 23.01 41.1257 23.01Z" fill="url(#paint7_linear_4_1591)"/>
<path d="M27.416 26.9275H19.5826C18.7797 26.9275 18.1139 26.2617 18.1139 25.4587C18.1139 24.6558 18.7797 23.99 19.5826 23.99H27.416C28.2189 23.99 28.8847 24.6558 28.8847 25.4587C28.8847 26.2617 28.2189 26.9275 27.416 26.9275Z" fill="url(#paint8_linear_4_1591)"/>

</symbol><symbol id="shapes" viewBox="0 0 50 50">
<path d="M35.354 25.5209V34.8959C35.354 42.7084 32.229 45.8334 24.4165 45.8334H15.0415C7.229 45.8334 4.104 42.7084 4.104 34.8959V25.5209C4.104 17.7084 7.229 14.5834 15.0415 14.5834H24.4165C32.229 14.5834 35.354 17.7084 35.354 25.5209Z" stroke="#DF5E63" stroke-width="3.125" stroke-linecap="round" stroke-linejoin="round"/>
<path d="M45.7709 15.625C45.7709 21.6041 41.2084 26.5 35.3542 27.0208V25.5208C35.3542 17.7083 32.2292 14.5833 24.4167 14.5833H22.9167C23.4376 8.72913 28.3334 4.16663 34.3126 4.16663C40.1251 4.16663 44.9167 8.47913 45.6459 14.1041C45.7292 14.5833 45.7709 15.1041 45.7709 15.625Z" stroke="#DF5E63" stroke-width="3.125" stroke-linecap="round" stroke-linejoin="round"/>
</symbol><symbol id="shield" viewBox="0 0 50 50">
<path d="M24.9999 45.625C24.7569 45.625 24.5312 45.6077 24.3228 45.5729C24.1145 45.5382 23.9062 45.4861 23.6978 45.4167C19.0103 43.8542 15.2777 40.9639 12.4999 36.7459C9.72214 32.5278 8.33325 27.9875 8.33325 23.125V13.2813C8.33325 12.4132 8.58534 11.632 9.0895 10.9375C9.59367 10.2431 10.2444 9.7396 11.0416 9.4271L23.5416 4.7396C24.0277 4.56599 24.5138 4.47919 24.9999 4.47919C25.486 4.47919 25.9721 4.56599 26.4583 4.7396L38.9583 9.4271C39.7569 9.7396 40.4083 10.2431 40.9124 10.9375C41.4166 11.632 41.668 12.4132 41.6666 13.2813V23.125C41.6666 27.9861 40.2777 32.5264 37.4999 36.7459C34.7221 40.9653 30.9895 43.8556 26.302 45.4167C26.0937 45.4861 25.8853 45.5382 25.677 45.5729C25.4687 45.6077 25.243 45.625 24.9999 45.625ZM24.9999 41.4584C28.611 40.3125 31.5971 38.0209 33.9583 34.5834C36.3194 31.1459 37.4999 27.3264 37.4999 23.125V13.2813L24.9999 8.59377L12.4999 13.2813V23.125C12.4999 27.3264 13.6805 31.1459 16.0416 34.5834C18.4027 38.0209 21.3888 40.3125 24.9999 41.4584Z" fill="black"/>
<path d="M24.9999 45.625C24.7569 45.625 24.5312 45.6077 24.3228 45.5729C24.1145 45.5382 23.9062 45.4861 23.6978 45.4167C19.0103 43.8542 15.2777 40.9639 12.4999 36.7459C9.72214 32.5278 8.33325 27.9875 8.33325 23.125V13.2813C8.33325 12.4132 8.58534 11.632 9.0895 10.9375C9.59367 10.2431 10.2444 9.7396 11.0416 9.4271L23.5416 4.7396C24.0277 4.56599 24.5138 4.47919 24.9999 4.47919C25.486 4.47919 25.9721 4.56599 26.4583 4.7396L38.9583 9.4271C39.7569 9.7396 40.4083 10.2431 40.9124 10.9375C41.4166 11.632 41.668 12.4132 41.6666 13.2813V23.125C41.6666 27.9861 40.2777 32.5264 37.4999 36.7459C34.7221 40.9653 30.9895 43.8556 26.302 45.4167C26.0937 45.4861 25.8853 45.5382 25.677 45.5729C25.4687 45.6077 25.243 45.625 24.9999 45.625ZM24.9999 41.4584C28.611 40.3125 31.5971 38.0209 33.9583 34.5834C36.3194 31.1459 37.4999 27.3264 37.4999 23.125V13.2813L24.9999 8.59377L12.4999 13.2813V23.125C12.4999 27.3264 13.6805 31.1459 16.0416 34.5834C18.4027 38.0209 21.3888 40.3125 24.9999 41.4584Z" fill="url(#paint0_linear_14_595)"/>

</symbol></svg>